<svg width="305" height="96" viewBox="0 0 305 96" fill="none" xmlns="http://www.w3.org/2000/svg">
<path d="M21.8321 81.4557C21.1272 81.4557 20.5341 81.3126 20.0469 81.0243C19.5616 80.7361 19.1996 80.3318 18.9627 79.8075C18.7258 79.2851 18.6257 78.6777 18.6642 77.987C18.695 77.2945 18.8298 76.6522 19.0725 76.0563C19.3132 75.4605 19.6406 74.942 20.0546 74.5009C20.4686 74.0598 20.9501 73.7174 21.5008 73.4756C22.0516 73.2338 22.6447 73.1119 23.2802 73.1119C24.2219 73.1119 24.9479 73.3402 25.4601 73.7987C25.9724 74.2552 26.2324 74.8994 26.2401 75.7294H24.9325C24.9171 75.2457 24.7553 74.8646 24.4453 74.588C24.1352 74.3113 23.6865 74.172 23.0973 74.172C22.6466 74.172 22.2307 74.2649 21.8532 74.4487C21.4739 74.6325 21.1426 74.8917 20.8557 75.2264C20.5688 75.5611 20.3415 75.9557 20.1721 76.4142C20.0045 76.8708 19.9121 77.366 19.8967 77.8961C19.8659 78.4262 19.9294 78.8789 20.0854 79.2503C20.2414 79.6237 20.486 79.9081 20.8191 80.1035C21.1523 80.2989 21.5509 80.3975 22.0188 80.3975C22.6081 80.3975 23.1011 80.266 23.4997 79.999C23.8964 79.734 24.193 79.3703 24.3837 78.9098H25.6912C25.4852 79.4322 25.2002 79.8849 24.8362 80.2698C24.4722 80.6548 24.0389 80.9489 23.5344 81.152C23.0299 81.3552 22.4637 81.4577 21.8359 81.4577L21.8321 81.4557Z" fill="#201667"/>
<path d="M26.1226 81.3184L27.1317 75.5089H28.2101L28.1177 76.5458C28.3006 76.3001 28.5125 76.0912 28.7493 75.9171C28.9862 75.7449 29.2558 75.6095 29.5581 75.5127C29.8605 75.416 30.1801 75.3696 30.5172 75.3696L30.3111 76.6135H29.8874C29.6506 76.6135 29.4214 76.6425 29.198 76.7006C28.9746 76.7586 28.7724 76.8515 28.5837 76.983C28.3969 77.1146 28.239 77.2867 28.1138 77.5015C27.9867 77.7162 27.8943 77.989 27.8327 78.3198L27.305 81.3165H26.1226V81.3184Z" fill="#201667"/>
<path d="M32.7086 81.4558C32.2118 81.4558 31.7804 81.3474 31.4184 81.1327C31.0544 80.918 30.781 80.6142 30.598 80.2215C30.4151 79.8288 30.3342 79.3722 30.3573 78.8499C30.3804 78.3585 30.4806 77.9039 30.6558 77.4841C30.831 77.0662 31.0718 76.6986 31.3779 76.3833C31.6841 76.0679 32.0404 75.8203 32.4448 75.6404C32.8492 75.4605 33.2941 75.3696 33.7755 75.3696C34.2954 75.3696 34.7307 75.4779 35.0831 75.6926C35.4355 75.9074 35.6954 76.1976 35.863 76.5632C36.0305 76.9288 36.1037 77.3332 36.0806 77.7801C36.0729 77.9193 36.0536 78.0702 36.0228 78.2347C35.992 78.4011 35.9612 78.552 35.9304 78.6893H31.2258L31.3625 77.871H34.9078C34.954 77.5479 34.9252 77.2751 34.8212 77.0527C34.7172 76.8302 34.5612 76.6561 34.3513 76.5342C34.1414 76.4104 33.8949 76.3504 33.6118 76.3504C33.3056 76.3504 33.0148 76.422 32.7394 76.5632C32.4641 76.7064 32.2233 76.9114 32.0173 77.1803C31.8112 77.4492 31.6726 77.7917 31.6033 78.2057L31.5455 78.5287C31.4685 78.9137 31.4742 79.2523 31.5628 79.5483C31.6514 79.8443 31.8093 80.0725 32.0385 80.235C32.2676 80.3956 32.5469 80.4769 32.8762 80.4769C33.244 80.4769 33.556 80.3956 33.8179 80.235C34.0778 80.0745 34.2839 79.8578 34.4379 79.5889H35.6203C35.4605 79.9507 35.2371 80.2718 34.954 80.5523C34.671 80.8328 34.3397 81.0534 33.9623 81.2159C33.5829 81.3765 33.165 81.4577 32.7067 81.4577L32.7086 81.4558ZM32.7433 75.0349L32.6971 74.2165L35.2217 72.7637L35.2795 73.7213L32.7433 75.0349Z" fill="#201667"/>
<path d="M38.8363 81.4558C38.3472 81.4558 37.9273 81.3358 37.5807 81.0979C37.2341 80.8599 36.9703 80.5368 36.795 80.1306C36.6198 79.7224 36.5466 79.2697 36.5774 78.7706C36.6005 78.2792 36.7007 77.8265 36.8759 77.4164C37.0511 77.0043 37.2861 76.6464 37.5807 76.3388C37.8754 76.0312 38.2143 75.7932 38.5956 75.6249C38.9788 75.4566 39.3871 75.3715 39.8242 75.3715C40.3056 75.3715 40.7004 75.4644 41.0066 75.6481C41.3128 75.8319 41.5381 76.0796 41.6845 76.3852L42.2814 73.019H43.4638L42.0061 81.3184H40.9276L40.9739 80.4188C40.8275 80.6026 40.6542 80.7748 40.452 80.9315C40.2498 81.0882 40.0168 81.2159 39.7529 81.3126C39.4891 81.4093 39.1849 81.4558 38.8401 81.4558H38.8363ZM39.2484 80.4304C39.6393 80.4304 39.9879 80.324 40.2979 80.1132C40.608 79.9023 40.8564 79.6218 41.0432 79.2716C41.23 78.9215 41.3321 78.5287 41.3475 78.0896C41.3706 77.751 41.3263 77.455 41.2146 77.2016C41.1029 76.9482 40.9353 76.7509 40.71 76.6077C40.4847 76.4665 40.2151 76.3949 39.9012 76.3949C39.5103 76.3949 39.1617 76.4936 38.8517 76.689C38.5417 76.8843 38.2952 77.1533 38.1122 77.4957C37.9293 77.8381 37.8253 78.2308 37.8022 78.6777C37.7791 79.0163 37.8253 79.3181 37.9389 79.5831C38.0544 79.8481 38.222 80.0551 38.4434 80.206C38.6649 80.355 38.9326 80.4304 39.2465 80.4304H39.2484Z" fill="#201667"/>
<path d="M43.1846 81.3184L44.2053 75.5089H45.3877L44.367 81.3184H43.1846ZM45.1123 74.4487C44.8908 74.4487 44.7079 74.3771 44.5673 74.2359C44.4267 74.0947 44.3478 73.9148 44.3324 73.7C44.3401 73.4853 44.4152 73.3073 44.5558 73.17C44.6963 73.0307 44.887 72.963 45.1238 72.963C45.3299 72.963 45.509 73.0326 45.6573 73.17C45.8056 73.3073 45.8807 73.4853 45.8807 73.7C45.8961 73.9148 45.8267 74.0947 45.6746 74.2359C45.5205 74.3791 45.3338 74.4487 45.1123 74.4487Z" fill="#201667"/>
<path d="M47.9354 81.3184C47.5291 81.3184 47.2017 81.2526 46.9495 81.123C46.6972 80.9934 46.5258 80.7883 46.4334 80.5117C46.3409 80.235 46.3332 79.881 46.4102 79.4515L46.9495 76.5013H45.9962L46.1792 75.5108H47.1208L47.5214 74.0347H48.5536L48.3013 75.5108H49.9189L49.736 76.5013H48.1068L47.5907 79.4515C47.5368 79.7901 47.5715 80.0164 47.6947 80.1325C47.818 80.2486 48.024 80.3047 48.3148 80.3047H49.0832L48.9002 81.3184H47.9354Z" fill="#201667"/>
<path d="M52.4108 81.3184L53.8224 73.2493H55.2108L56.9671 78.6564L60.6048 73.2493H62.0048L60.5933 81.3184H59.4109L60.4662 75.3135L57.1616 80.1886H56.243L54.6485 75.3348L53.5932 81.3165H52.4108V81.3184Z" fill="#201667"/>
<path d="M63.8728 81.4558C63.3913 81.4558 63.0004 81.3494 62.7019 81.1385C62.4034 80.9277 62.2032 80.6317 62.0992 80.2505C61.9952 79.8694 61.9933 79.4264 62.0934 78.9195L62.6904 75.5069H63.8728L63.2758 78.8267C63.1834 79.3413 63.22 79.7417 63.3856 80.0261C63.5493 80.3105 63.8651 80.4517 64.333 80.4517C64.6315 80.4517 64.9108 80.3821 65.1707 80.2447C65.4307 80.1055 65.6541 79.9043 65.8428 79.6392C66.0296 79.3742 66.1586 79.0492 66.228 78.6642L66.8018 75.505H67.9727L66.9636 81.3146H65.9198L65.9776 80.3357C65.7561 80.682 65.4615 80.9547 65.0937 81.154C64.7259 81.3533 64.3215 81.4539 63.8766 81.4539L63.8728 81.4558Z" fill="#201667"/>
<path d="M70.4473 81.3184C70.0409 81.3184 69.7136 81.2526 69.4613 81.123C69.209 80.9934 69.0376 80.7883 68.9452 80.5117C68.8528 80.235 68.8451 79.881 68.9221 79.4515L69.4613 76.5013H68.5081L68.691 75.5108H69.6327L70.0332 74.0347H71.0654L70.8132 75.5108H72.4308L72.2478 76.5013H70.6187L70.1026 79.4515C70.0486 79.7901 70.0833 80.0164 70.2066 80.1325C70.3298 80.2486 70.5359 80.3047 70.8266 80.3047H71.595L71.4121 81.3184H70.4473Z" fill="#201667"/>
<path d="M74.3488 81.4558C73.8674 81.4558 73.4764 81.3494 73.1779 81.1385C72.8795 80.9277 72.6792 80.6317 72.5752 80.2505C72.4712 79.8694 72.4693 79.4264 72.5694 78.9195L73.1664 75.5069H74.3488L73.7518 78.8267C73.6594 79.3413 73.696 79.7417 73.8616 80.0261C74.0253 80.3105 74.3411 80.4517 74.809 80.4517C75.1075 80.4517 75.3868 80.3821 75.6467 80.2447C75.9067 80.1055 76.1301 79.9043 76.3188 79.6392C76.5056 79.3742 76.6346 79.0492 76.704 78.6642L77.2778 75.505H78.4487L77.4396 81.3146H76.3959L76.4536 80.3357C76.2322 80.682 75.9375 80.9547 75.5697 81.154C75.2019 81.3533 74.7975 81.4539 74.3526 81.4539L74.3488 81.4558Z" fill="#201667"/>
<path d="M81.164 81.4558C80.6672 81.4558 80.2358 81.3474 79.8738 81.1327C79.5098 80.918 79.2364 80.6142 79.0534 80.2215C78.8705 79.8288 78.7896 79.3722 78.8127 78.8499C78.8358 78.3585 78.9359 77.9039 79.1112 77.4841C79.2864 77.0662 79.5271 76.6986 79.8333 76.3833C80.1395 76.068 80.4958 75.8203 80.9002 75.6404C81.3046 75.4605 81.7494 75.3696 82.2309 75.3696C82.7508 75.3696 83.186 75.4779 83.5384 75.6926C83.8909 75.9074 84.1508 76.1976 84.3184 76.5632C84.4859 76.9288 84.5591 77.3332 84.536 77.7801C84.5283 77.9194 84.509 78.0703 84.4782 78.2347C84.4474 78.4011 84.4166 78.552 84.3858 78.6893H79.6812L79.8179 77.871H83.3632C83.4094 77.5479 83.3805 77.2751 83.2765 77.0527C83.1726 76.8302 83.0166 76.6561 82.8067 76.5342C82.5968 76.4104 82.3503 76.3504 82.0672 76.3504C81.761 76.3504 81.4702 76.422 81.1948 76.5632C80.9194 76.7064 80.6787 76.9114 80.4727 77.1803C80.2666 77.4493 80.128 77.7917 80.0586 78.2057L80.0009 78.5288C79.9238 78.9137 79.9296 79.2523 80.0182 79.5483C80.1068 79.8443 80.2647 80.0725 80.4939 80.2351C80.723 80.3956 81.0023 80.4769 81.3316 80.4769C81.6994 80.4769 82.0113 80.3956 82.2732 80.2351C82.5332 80.0745 82.7393 79.8578 82.8933 79.5889H84.0757C83.9159 79.9507 83.6925 80.2718 83.4094 80.5523C83.1263 80.8328 82.7951 81.0534 82.4177 81.2159C82.0383 81.3765 81.6204 81.4577 81.1621 81.4577L81.164 81.4558Z" fill="#201667"/>
<path d="M84.7555 81.3184L86.2248 73.019H87.4072L85.9379 81.3184H84.7555Z" fill="#201667"/>
<path d="M89.2425 81.3184L93.6023 73.2493H94.8984L96.4235 81.3184H95.1737L94.0029 74.6325L90.4692 81.3184H89.2405H89.2425ZM90.7465 79.3355L91.2395 78.4011H95.3239L95.4626 79.3355H90.7465Z" fill="#201667"/>
<path d="M97.0455 81.3184L98.5149 73.019H99.6973L98.2279 81.3184H97.0455Z" fill="#201667"/>
<path d="M99.3391 81.3184L100.808 73.019H101.991L100.521 81.3184H99.3391Z" fill="#201667"/>
<path d="M101.727 81.3184L102.748 75.5089H103.93L102.909 81.3184H101.727ZM103.655 74.4487C103.433 74.4487 103.25 74.3771 103.11 74.2359C102.969 74.0947 102.89 73.9148 102.875 73.7C102.882 73.4853 102.958 73.3073 103.098 73.17C103.239 73.0307 103.429 72.963 103.666 72.963C103.872 72.963 104.051 73.0326 104.2 73.17C104.348 73.3073 104.423 73.4853 104.423 73.7C104.438 73.9148 104.369 74.0947 104.217 74.2359C104.063 74.3791 103.876 74.4487 103.655 74.4487Z" fill="#201667"/>
<path d="M105.971 81.4558C105.542 81.4558 105.193 81.3823 104.922 81.2372C104.65 81.0921 104.454 80.8928 104.331 80.6433C104.207 80.3937 104.155 80.1267 104.171 79.8423C104.178 79.4361 104.302 79.082 104.539 78.7822C104.775 78.4823 105.103 78.254 105.521 78.0954C105.937 77.9387 106.422 77.8594 106.973 77.8594H108.465C108.519 77.5131 108.519 77.2287 108.465 77.0062C108.411 76.7837 108.298 76.6193 108.12 76.511C107.945 76.4026 107.71 76.3504 107.421 76.3504C107.077 76.3504 106.77 76.4336 106.503 76.598C106.235 76.7625 106.044 77.0082 105.929 77.3293H104.735C104.858 76.9076 105.058 76.5535 105.338 76.2691C105.617 75.9848 105.952 75.7642 106.341 75.6056C106.732 75.4489 107.144 75.3696 107.579 75.3696C108.115 75.3696 108.55 75.4663 108.887 75.6578C109.224 75.8493 109.457 76.1202 109.586 76.4703C109.715 76.8205 109.738 77.2364 109.655 77.7201L109.035 81.3165H107.991L108.072 80.3492C107.964 80.504 107.843 80.6491 107.704 80.7864C107.568 80.9257 107.412 81.0437 107.24 81.1443C107.069 81.2449 106.876 81.3204 106.666 81.3745C106.457 81.4287 106.225 81.4558 105.971 81.4558ZM106.374 80.5001C106.611 80.5001 106.84 80.4517 107.061 80.3569C107.283 80.2602 107.481 80.1267 107.658 79.9526C107.833 79.7804 107.978 79.5889 108.088 79.3819C108.197 79.1749 108.261 78.9524 108.276 78.7125L108.288 78.6777H106.934C106.62 78.6777 106.353 78.7203 106.131 78.8054C105.91 78.8905 105.738 79.0085 105.621 79.1633C105.501 79.3181 105.436 79.498 105.421 79.705C105.413 79.9507 105.492 80.1441 105.655 80.2873C105.819 80.4304 106.058 80.5001 106.372 80.5001H106.374Z" fill="#201667"/>
<path d="M110.148 81.3184L111.157 75.5089H112.213L112.132 76.4878C112.376 76.1337 112.681 75.859 113.045 75.6636C113.409 75.4682 113.811 75.3696 114.256 75.3696C114.737 75.3696 115.126 75.474 115.421 75.681C115.716 75.888 115.914 76.1802 116.018 76.5574C116.122 76.9347 116.128 77.3796 116.035 77.8942L115.438 81.3184H114.267L114.83 78.0103C114.922 77.4879 114.882 77.0836 114.708 76.7992C114.537 76.5148 114.221 76.3736 113.761 76.3736C113.47 76.3736 113.197 76.4471 112.941 76.5922C112.684 76.7393 112.465 76.9405 112.28 77.1978C112.097 77.4551 111.962 77.7723 111.878 78.1496L111.327 81.3204H110.144L110.148 81.3184Z" fill="#201667"/>
<path d="M119.122 81.4558C118.625 81.4558 118.19 81.3455 117.82 81.1269C117.449 80.9083 117.168 80.6007 116.977 80.2041C116.786 79.8075 116.698 79.3529 116.713 78.8383C116.736 78.3392 116.84 77.8787 117.029 77.4551C117.216 77.0333 117.468 76.6657 117.786 76.3543C118.103 76.0428 118.465 75.801 118.87 75.6288C119.274 75.4566 119.715 75.3696 120.189 75.3696C120.9 75.3696 121.462 75.5572 121.876 75.9345C122.288 76.3117 122.504 76.8224 122.519 77.4667H121.291C121.283 77.1204 121.156 76.8534 120.911 76.6657C120.667 76.4781 120.368 76.3833 120.016 76.3833C119.64 76.3833 119.299 76.4839 118.995 76.6832C118.689 76.8824 118.442 77.1571 118.256 77.5073C118.069 77.8575 117.963 78.2656 117.94 78.7357C117.924 79.0047 117.947 79.2465 118.009 79.4612C118.071 79.676 118.161 79.8559 118.284 79.9971C118.408 80.1403 118.554 80.2505 118.725 80.3318C118.897 80.413 119.091 80.4537 119.305 80.4537C119.542 80.4537 119.767 80.4111 119.983 80.326C120.197 80.2409 120.393 80.117 120.568 79.9507C120.744 79.7862 120.878 79.587 120.969 79.3568H122.198C122.045 79.765 121.816 80.1267 121.516 80.4459C121.214 80.7651 120.857 81.0128 120.449 81.1888C120.041 81.3649 119.598 81.4538 119.124 81.4538L119.122 81.4558Z" fill="#201667"/>
<path d="M125.352 81.4558C124.855 81.4558 124.424 81.3474 124.062 81.1327C123.698 80.918 123.424 80.6142 123.241 80.2215C123.058 79.8288 122.977 79.3722 123.001 78.8499C123.024 78.3585 123.124 77.9039 123.299 77.4841C123.474 77.0662 123.715 76.6986 124.021 76.3833C124.327 76.068 124.684 75.8203 125.088 75.6404C125.492 75.4605 125.937 75.3696 126.419 75.3696C126.939 75.3696 127.374 75.4779 127.726 75.6926C128.079 75.9074 128.339 76.1976 128.506 76.5632C128.674 76.9288 128.747 77.3332 128.724 77.7801C128.716 77.9194 128.697 78.0703 128.666 78.2347C128.635 78.4011 128.604 78.552 128.574 78.6893H123.869L124.006 77.871H127.551C127.597 77.5479 127.568 77.2751 127.464 77.0527C127.36 76.8302 127.204 76.6561 126.995 76.5342C126.785 76.4104 126.538 76.3504 126.255 76.3504C125.949 76.3504 125.658 76.422 125.383 76.5632C125.107 76.7064 124.867 76.9114 124.661 77.1803C124.454 77.4493 124.316 77.7917 124.247 78.2057L124.189 78.5288C124.112 78.9137 124.117 79.2523 124.206 79.5483C124.295 79.8443 124.453 80.0725 124.682 80.2351C124.911 80.3956 125.19 80.4769 125.519 80.4769C125.887 80.4769 126.199 80.3956 126.461 80.2351C126.721 80.0745 126.927 79.8578 127.081 79.5889H128.264C128.104 79.9507 127.88 80.2718 127.597 80.5523C127.314 80.8328 126.983 81.0534 126.606 81.2159C126.226 81.3765 125.808 81.4577 125.35 81.4577L125.352 81.4558Z" fill="#201667"/>
<path d="M131.651 81.3184L133.063 73.2493H137.973L137.802 74.2069H134.072L133.625 76.8128H136.7L136.529 77.7356H133.453L132.833 81.3204H131.651V81.3184Z" fill="#201667"/>
<path d="M139.625 81.4558C139.129 81.4558 138.697 81.3474 138.335 81.1327C137.971 80.918 137.698 80.6142 137.515 80.2215C137.332 79.8288 137.251 79.3722 137.274 78.8499C137.297 78.3585 137.397 77.9039 137.573 77.4841C137.748 77.0662 137.989 76.6986 138.295 76.3833C138.601 76.0679 138.957 75.8203 139.362 75.6404C139.766 75.4605 140.211 75.3696 140.692 75.3696C141.212 75.3696 141.648 75.4779 142 75.6926C142.352 75.9074 142.612 76.1976 142.78 76.5632C142.947 76.9288 143.021 77.3332 142.997 77.7801C142.99 77.9193 142.971 78.0702 142.94 78.2347C142.909 78.4011 142.878 78.552 142.847 78.6893H138.143L138.279 77.871H141.825C141.871 77.5479 141.842 77.2751 141.738 77.0527C141.634 76.8302 141.478 76.6561 141.268 76.5342C141.058 76.4104 140.812 76.3504 140.529 76.3504C140.222 76.3504 139.932 76.422 139.656 76.5632C139.381 76.7064 139.14 76.9114 138.934 77.1803C138.728 77.4492 138.589 77.7917 138.52 78.2057L138.462 78.5287C138.385 78.9137 138.391 79.2523 138.48 79.5483C138.568 79.8443 138.726 80.0725 138.955 80.235C139.185 80.3956 139.464 80.4769 139.793 80.4769C140.161 80.4769 140.473 80.3956 140.735 80.235C140.995 80.0745 141.201 79.8578 141.355 79.5889H142.537C142.377 79.9507 142.154 80.2718 141.871 80.5523C141.588 80.8328 141.257 81.0534 140.879 81.2159C140.5 81.3765 140.082 81.4577 139.624 81.4577L139.625 81.4558ZM139.66 75.0349L139.614 74.2165L142.139 72.7637L142.196 73.7213L139.66 75.0349Z" fill="#201667"/>
<path d="M145.753 81.4558C145.264 81.4558 144.844 81.3358 144.498 81.0979C144.151 80.8599 143.887 80.5368 143.712 80.1306C143.537 79.7224 143.463 79.2697 143.494 78.7706C143.517 78.2792 143.618 77.8265 143.793 77.4164C143.968 77.0043 144.203 76.6464 144.498 76.3388C144.792 76.0312 145.131 75.7932 145.512 75.6249C145.896 75.4566 146.304 75.3715 146.741 75.3715C147.223 75.3715 147.617 75.4644 147.923 75.6481C148.23 75.8319 148.455 76.0796 148.601 76.3852L149.198 73.019H150.381L148.923 81.3184H147.845L147.891 80.4188C147.744 80.6026 147.571 80.7748 147.369 80.9315C147.167 81.0882 146.934 81.2159 146.67 81.3126C146.406 81.4093 146.102 81.4558 145.757 81.4558H145.753ZM146.167 80.4304C146.558 80.4304 146.907 80.324 147.217 80.1132C147.527 79.9023 147.775 79.6218 147.962 79.2716C148.149 78.9215 148.251 78.5287 148.266 78.0896C148.289 77.751 148.245 77.455 148.133 77.2016C148.022 76.9482 147.854 76.7509 147.629 76.6077C147.404 76.4665 147.134 76.3949 146.82 76.3949C146.429 76.3949 146.081 76.4936 145.771 76.689C145.46 76.8843 145.214 77.1533 145.031 77.4957C144.848 77.8381 144.744 78.2308 144.721 78.6777C144.698 79.0163 144.744 79.3181 144.858 79.5831C144.973 79.8481 145.141 80.0551 145.362 80.206C145.584 80.355 145.851 80.4304 146.165 80.4304H146.167Z" fill="#201667"/>
<path d="M152.638 81.4558C152.141 81.4558 151.709 81.3474 151.347 81.1327C150.983 80.918 150.71 80.6142 150.527 80.2215C150.344 79.8288 150.263 79.3722 150.286 78.8499C150.309 78.3585 150.41 77.9039 150.585 77.4841C150.76 77.0662 151.001 76.6986 151.307 76.3833C151.613 76.0679 151.969 75.8203 152.374 75.6404C152.778 75.4605 153.223 75.3696 153.705 75.3696C154.224 75.3696 154.66 75.4779 155.012 75.6926C155.364 75.9074 155.624 76.1976 155.792 76.5632C155.96 76.9288 156.033 77.3332 156.01 77.7801C156.002 77.9193 155.983 78.0702 155.952 78.2347C155.921 78.4011 155.89 78.552 155.859 78.6893H151.155L151.292 77.871H154.837C154.883 77.5479 154.854 77.2751 154.75 77.0527C154.646 76.8302 154.49 76.6561 154.28 76.5342C154.07 76.4104 153.824 76.3504 153.541 76.3504C153.235 76.3504 152.944 76.422 152.668 76.5632C152.393 76.7064 152.152 76.9114 151.946 77.1803C151.74 77.4492 151.602 77.7917 151.532 78.2057L151.475 78.5287C151.397 78.9137 151.403 79.2523 151.492 79.5483C151.58 79.8443 151.738 80.0725 151.968 80.235C152.197 80.3956 152.476 80.4769 152.805 80.4769C153.173 80.4769 153.485 80.3956 153.747 80.235C154.007 80.0745 154.213 79.8578 154.367 79.5889H155.549C155.39 79.9507 155.166 80.2718 154.883 80.5523C154.6 80.8328 154.269 81.0534 153.891 81.2159C153.512 81.3765 153.094 81.4577 152.636 81.4577L152.638 81.4558ZM152.672 75.0349L152.626 74.2165L155.151 72.7637L155.209 73.7213L152.672 75.0349Z" fill="#201667"/>
<path d="M156.241 81.3184L157.25 75.5089H158.328L158.236 76.5458C158.419 76.3001 158.631 76.0912 158.867 75.9171C159.104 75.7449 159.374 75.6095 159.676 75.5127C159.979 75.416 160.298 75.3696 160.635 75.3696L160.429 76.6135H160.006C159.769 76.6135 159.54 76.6425 159.316 76.7006C159.093 76.7586 158.891 76.8515 158.702 76.983C158.515 77.1146 158.357 77.2867 158.232 77.5015C158.105 77.7162 158.012 77.989 157.951 78.3198L157.423 81.3165H156.241V81.3184Z" fill="#201667"/>
<path d="M162.081 81.4558C161.652 81.4558 161.303 81.3823 161.032 81.2372C160.76 81.0921 160.564 80.8928 160.441 80.6433C160.317 80.3937 160.265 80.1267 160.281 79.8423C160.289 79.4361 160.412 79.082 160.649 78.7822C160.886 78.4823 161.213 78.254 161.631 78.0954C162.047 77.9387 162.532 77.8594 163.083 77.8594H164.575C164.629 77.5131 164.629 77.2287 164.575 77.0062C164.521 76.7837 164.408 76.6193 164.231 76.511C164.055 76.4026 163.82 76.3504 163.532 76.3504C163.187 76.3504 162.881 76.4336 162.613 76.598C162.345 76.7625 162.155 77.0082 162.039 77.3293H160.845C160.968 76.9076 161.169 76.5535 161.448 76.2691C161.727 75.9848 162.062 75.7642 162.451 75.6056C162.842 75.4489 163.254 75.3696 163.689 75.3696C164.225 75.3696 164.66 75.4663 164.997 75.6578C165.334 75.8493 165.567 76.1202 165.696 76.4703C165.827 76.8205 165.848 77.2364 165.765 77.7201L165.145 81.3165H164.102L164.182 80.3492C164.075 80.504 163.953 80.6491 163.815 80.7864C163.678 80.9257 163.522 81.0437 163.351 81.1443C163.179 81.2449 162.987 81.3204 162.777 81.3745C162.567 81.4287 162.336 81.4558 162.081 81.4558ZM162.482 80.5001C162.719 80.5001 162.948 80.4517 163.169 80.3569C163.391 80.2602 163.589 80.1267 163.766 79.9526C163.942 79.7804 164.086 79.5889 164.196 79.3819C164.306 79.1749 164.369 78.9524 164.385 78.7125L164.396 78.6777H163.042C162.729 78.6777 162.461 78.7203 162.239 78.8054C162.018 78.8905 161.847 79.0085 161.729 79.1633C161.61 79.3181 161.544 79.498 161.529 79.705C161.521 79.9507 161.6 80.1441 161.764 80.2873C161.927 80.4304 162.166 80.5001 162.48 80.5001H162.482Z" fill="#201667"/>
<path d="M166.247 81.3184L167.716 73.019H168.899L167.429 81.3184H166.247Z" fill="#201667"/>
<path d="M171.169 81.4558C170.672 81.4558 170.241 81.3474 169.879 81.1327C169.515 80.918 169.241 80.6142 169.058 80.2215C168.875 79.8288 168.795 79.3722 168.818 78.8499C168.841 78.3585 168.941 77.9039 169.116 77.4841C169.291 77.0662 169.532 76.6986 169.838 76.3833C170.145 76.068 170.501 75.8203 170.905 75.6404C171.31 75.4605 171.754 75.3696 172.236 75.3696C172.756 75.3696 173.191 75.4779 173.543 75.6926C173.896 75.9074 174.156 76.1976 174.323 76.5632C174.491 76.9288 174.564 77.3332 174.541 77.7801C174.533 77.9194 174.514 78.0703 174.483 78.2347C174.452 78.4011 174.422 78.552 174.391 78.6893H169.686L169.823 77.871H173.368C173.414 77.5479 173.386 77.2751 173.282 77.0527C173.178 76.8302 173.022 76.6561 172.812 76.5342C172.602 76.4104 172.355 76.3504 172.072 76.3504C171.766 76.3504 171.475 76.422 171.2 76.5632C170.924 76.7064 170.684 76.9114 170.478 77.1803C170.272 77.4493 170.133 77.7917 170.064 78.2057L170.006 78.5288C169.929 78.9137 169.935 79.2523 170.023 79.5483C170.112 79.8443 170.27 80.0725 170.499 80.2351C170.728 80.3956 171.007 80.4769 171.337 80.4769C171.704 80.4769 172.016 80.3956 172.278 80.2351C172.538 80.0745 172.744 79.8578 172.898 79.5889H174.081C173.921 79.9507 173.698 80.2718 173.414 80.5523C173.131 80.8328 172.8 81.0534 172.423 81.2159C172.043 81.3765 171.625 81.4577 171.167 81.4577L171.169 81.4558Z" fill="#201667"/>
<path d="M289.877 14.5443H28.8745L15.1228 67.8305H182.281L180.85 72.9765H195.624L197.039 67.8305H289.877V14.5443Z" fill="#201667"/>
<path d="M45.7305 29.6824H49.7244L44.8254 51.1795H48.1627C49.8785 51.1795 55.0491 51.1292 56.245 51.0808L55.8598 52.7446H40.4867L45.7343 29.6824H45.7305Z" fill="white"/>
<path d="M72.8699 45.9078H62.935C60.9669 49.1695 59.3859 52.0191 58.9796 52.7446H56.6071L70.8633 29.6824H74.1621L77.9423 52.7446H73.8905L72.868 45.9078H72.8699ZM72.6388 44.3427L70.921 32.8783L63.8998 44.3427H72.6388Z" fill="white"/>
<path d="M107.916 31.3461C106.759 31.3132 102.168 31.2474 100.2 31.2474H96.7856V40.1427H98.85C100.354 40.1427 105.486 40.1272 106.566 40.0924V41.7561C105.486 41.7232 100.354 41.6903 98.85 41.6903H96.7856V52.7426H92.7935V29.6804H107.916V31.3442V31.3461Z" fill="white"/>
<path d="M112.024 29.6824H119.276C127.667 29.6824 129.693 33.2246 129.693 36.0239C129.693 39.4346 126.896 41.4601 124.31 42.2668L131.004 52.7426H126.432L120.357 42.8917C118.814 42.8414 117.308 42.7273 116.016 42.5957V52.7426H112.024V29.6804V29.6824ZM116.016 41.2125C117.424 41.3112 118.949 41.3943 120.28 41.3943C120.838 41.3943 121.379 41.3769 121.861 41.344C123.461 40.8178 125.487 39.3843 125.487 36.3025C125.487 31.7562 121.185 31.2455 118.254 31.2455H116.016V41.2106V41.2125Z" fill="white"/>
<path d="M146.377 45.9078H136.462C135.112 49.3184 134.128 52.0694 133.916 52.7446H131.716L140.995 29.6824H144.255L153.206 52.7446H149L146.377 45.9078ZM145.78 44.3427L141.497 33.2072L137.08 44.3427H145.78Z" fill="white"/>
<path d="M157.778 34.0642V42.2668C157.778 46.1051 157.932 52.3983 157.951 52.7426H155.944V29.6804H159.474L173.942 48.4092V40.1562C173.942 36.318 173.807 30.1912 173.769 29.6804H175.775V52.7426H172.246L157.778 34.0623V34.0642Z" fill="white"/>
<path d="M201.834 48.7419C199.924 51.0808 196.394 53.2069 191.977 53.2069C184.955 53.2069 179.534 47.7379 179.534 41.2976C179.534 34.8574 184.801 29.2239 192.169 29.2239C194.157 29.2239 197.802 29.6185 200.29 30.5742L199.056 33.6386C197.648 32.9305 192.708 30.789 191.513 30.6903C186.284 31.2494 183.604 34.1667 183.604 40.2104C183.604 47.0801 187.499 51.3788 193.074 51.3788C197.01 51.3788 199.169 49.2701 200.346 47.705L201.831 48.7419H201.834ZM188.389 60.2875C189.469 58.3607 190.627 56.3835 191.765 54.4896H193.307L192.439 60.2875H188.387H188.389Z" fill="white"/>
<path d="M217.458 45.9078H207.542C206.192 49.3184 205.208 52.0694 204.997 52.7446H202.797L212.076 29.6824H215.336L224.287 52.7446H220.081L217.458 45.9078ZM216.861 44.3427L212.578 33.2072L208.161 44.3427H216.861Z" fill="white"/>
<path d="M227.526 29.6824H231.52V52.7446H227.526V29.6824Z" fill="white"/>
<path d="M249.67 32.9112C247.779 31.7079 245.502 30.787 243.633 30.787C241.763 30.787 239.66 31.8085 239.66 33.9984C239.66 35.7937 240.625 36.8152 245.023 39.5836C249.961 42.6963 251.293 43.9654 251.293 46.6661C251.293 50.7345 247.338 53.205 242.864 53.205C240.028 53.205 237.655 52.1681 235.804 51.0634L236.827 49.5486C238.138 50.603 240.01 51.5915 242.325 51.5915C245.489 51.5915 247.419 49.8291 247.419 47.5386C247.419 45.5943 246.069 44.4916 242.346 42.35C238.352 40.044 236.636 37.8366 236.636 35.2017C236.636 31.8414 239.413 29.2219 243.696 29.2219C246.261 29.2219 248.769 30.226 250.717 31.4119L249.676 32.9112H249.67Z" fill="white"/>
<path d="M255.553 29.6824H270.676V31.3461C269.518 31.3132 264.927 31.2475 262.959 31.2475H259.545V40.1427H261.609C263.113 40.1427 268.245 40.1272 269.326 40.0924V41.7561C268.245 41.7232 263.115 41.6904 261.609 41.6904H259.545V51.1795H263.133C265.101 51.1795 269.692 51.1137 270.849 51.0808V52.7446H255.553V29.6824Z" fill="white"/>
</svg>
